<?xml version="1.0" encoding="UTF-8" standalone="no"?>
<!DOCTYPE svg PUBLIC "-//W3C//DTD SVG 1.1//EN" "http://www.w3.org/Graphics/SVG/1.1/DTD/svg11.dtd"
[
<!ATTLIST g
  xmlns:vectornator CDATA #FIXED "http://vectornator.io"
  vectornator:layerName CDATA #IMPLIED >
<!ATTLIST g
  xmlns:vectornator CDATA #FIXED "http://vectornator.io"
  vectornator:mask CDATA #IMPLIED >
<!ATTLIST text
  xmlns:vectornator CDATA #FIXED "http://vectornator.io"
  vectornator:width CDATA #IMPLIED >
<!ATTLIST text
  xmlns:vectornator CDATA #FIXED "http://vectornator.io"
  vectornator:text CDATA #IMPLIED >

<!ATTLIST path
  xmlns:vectornator CDATA #FIXED "http://vectornator.io"
  vectornator:blendMode CDATA #IMPLIED >
<!ATTLIST path
  xmlns:vectornator CDATA #FIXED "http://vectornator.io"
  vectornator:shadowColor CDATA #IMPLIED >
<!ATTLIST path
  xmlns:vectornator CDATA #FIXED "http://vectornator.io"
  vectornator:shadowOpacity CDATA #IMPLIED >
<!ATTLIST path
  xmlns:vectornator CDATA #FIXED "http://vectornator.io"
  vectornator:shadowRadius CDATA #IMPLIED >
<!ATTLIST path
  xmlns:vectornator CDATA #FIXED "http://vectornator.io"
  vectornator:shadowOffset CDATA #IMPLIED >
<!ATTLIST path
  xmlns:vectornator CDATA #FIXED "http://vectornator.io"
  vectornator:shadowAngle CDATA #IMPLIED >

<!ATTLIST image
  xmlns:vectornator CDATA #FIXED "http://vectornator.io"
  vectornator:blendMode CDATA #IMPLIED >
<!ATTLIST image
  xmlns:vectornator CDATA #FIXED "http://vectornator.io"
  vectornator:shadowColor CDATA #IMPLIED >
<!ATTLIST image
  xmlns:vectornator CDATA #FIXED "http://vectornator.io"
  vectornator:shadowOpacity CDATA #IMPLIED >
<!ATTLIST image
  xmlns:vectornator CDATA #FIXED "http://vectornator.io"
  vectornator:shadowRadius CDATA #IMPLIED >
<!ATTLIST image
  xmlns:vectornator CDATA #FIXED "http://vectornator.io"
  vectornator:shadowOffset CDATA #IMPLIED >
<!ATTLIST image
  xmlns:vectornator CDATA #FIXED "http://vectornator.io"
  vectornator:shadowAngle CDATA #IMPLIED >

<!ATTLIST g
  xmlns:vectornator CDATA #FIXED "http://vectornator.io"
  vectornator:blendMode CDATA #IMPLIED >
<!ATTLIST g
  xmlns:vectornator CDATA #FIXED "http://vectornator.io"
  vectornator:shadowColor CDATA #IMPLIED >
<!ATTLIST g
  xmlns:vectornator CDATA #FIXED "http://vectornator.io"
  vectornator:shadowOpacity CDATA #IMPLIED >
<!ATTLIST g
  xmlns:vectornator CDATA #FIXED "http://vectornator.io"
  vectornator:shadowRadius CDATA #IMPLIED >
<!ATTLIST g
  xmlns:vectornator CDATA #FIXED "http://vectornator.io"
  vectornator:shadowOffset CDATA #IMPLIED >
<!ATTLIST g
  xmlns:vectornator CDATA #FIXED "http://vectornator.io"
  vectornator:shadowAngle CDATA #IMPLIED >

<!ENTITY % SVG.filter.extra.content  "| feDropShadow" >
<!ELEMENT feDropShadow EMPTY>
<!ATTLIST feDropShadow
  xmlns:svg CDATA #FIXED "http://www.w3.org/Graphics/SVG/1.1/DTD/svg11.dtd"
  dx CDATA #IMPLIED>
<!ATTLIST feDropShadow
  xmlns:svg CDATA #FIXED "http://www.w3.org/Graphics/SVG/1.1/DTD/svg11.dtd"
  dy CDATA #IMPLIED>
<!ATTLIST feDropShadow
  xmlns:svg CDATA #FIXED "http://www.w3.org/Graphics/SVG/1.1/DTD/svg11.dtd"
  stdDeviation CDATA #IMPLIED>
<!ATTLIST feDropShadow
  xmlns:svg CDATA #FIXED "http://www.w3.org/Graphics/SVG/1.1/DTD/svg11.dtd"
  flood-opacity CDATA #IMPLIED>
<!ATTLIST feDropShadow
  xmlns:svg CDATA #FIXED "http://www.w3.org/Graphics/SVG/1.1/DTD/svg11.dtd"
  in CDATA #IMPLIED>
<!ATTLIST feDropShadow
  xmlns:svg CDATA #FIXED "http://www.w3.org/Graphics/SVG/1.1/DTD/svg11.dtd"
  result CDATA #IMPLIED>
<!ATTLIST feDropShadow
  xmlns:svg CDATA #FIXED "http://www.w3.org/Graphics/SVG/1.1/DTD/svg11.dtd"
  flood-color CDATA #IMPLIED>
]
>
<!-- Created with Vectornator (http://vectornator.io/) -->
<svg height="100%" stroke-miterlimit="10" style="fill-rule:nonzero;clip-rule:evenodd;stroke-linecap:round;stroke-linejoin:round;" version="1.1" viewBox="0 0 841.995 595.35" width="100%" xml:space="preserve" xmlns="http://www.w3.org/2000/svg" xmlns:vectornator="http://vectornator.io" xmlns:xlink="http://www.w3.org/1999/xlink">
<defs/>
<g id="Calque-3" vectornator:layerName="Calque 3">
<path d="M640 260.99L569.774 152.721L524.393 188.029L594.619 296.298L640 260.99Z" fill="#ffffff" fill-rule="evenodd" opacity="1" stroke="#4c4b4b" stroke-linecap="round" stroke-linejoin="round" stroke-width="8"/>
<path d="M574.21 294.076L522.111 207.905L480 200L440 240L320.178 346.915C317.896 366.791 338.305 369.013 338.305 369.013L406.377 316.051L338.305 369.013C338.305 369.013 336.023 388.889 356.432 391.111L424.504 338.149L379.123 373.457C379.123 373.457 376.841 393.333 397.25 395.556L442.631 360.248L419.94 377.902C419.94 377.902 417.658 397.778 438.067 400L574.21 294.076Z" fill="#ffffff" fill-rule="evenodd" opacity="1" stroke="#4c4b4b" stroke-linecap="round" stroke-linejoin="round" stroke-width="8"/>
</g>
<g id="Calque-2" vectornator:layerName="Calque 2">
<path d="M248.351 260.99L316.745 152.721L360.942 188.029L292.548 296.298L248.351 260.99Z" fill="#4c4b4b" fill-rule="evenodd" opacity="1" stroke="#ffffff" stroke-linecap="round" stroke-linejoin="round" stroke-width="8"/>
<path d="M312.424 294.076L363.164 207.905L402.916 203.461L559.827 346.915C562.049 366.791 542.173 369.013 542.173 369.013L475.878 316.051L542.173 369.013C542.173 369.013 544.395 388.889 524.519 391.111L458.224 338.149L502.42 373.457C502.42 373.457 504.643 393.333 484.766 395.556L440.57 360.248L462.668 377.902C462.668 377.902 464.89 397.778 445.014 400L312.424 294.076Z" fill="#4c4b4b" fill-rule="evenodd" opacity="1" stroke="#ffffff" stroke-linecap="round" stroke-linejoin="round" stroke-width="8"/>
<path d="M290 240L290 240C295.523 240 300 244.477 300 250L300 250C300 255.523 295.523 260 290 260L290 260C284.477 260 280 255.523 280 250L280 250C280 244.477 284.477 240 290 240Z" fill="none" fill-rule="evenodd" opacity="1" stroke="#ffffff" stroke-linecap="round" stroke-linejoin="round" stroke-width="4"/>
<path d="M460 220L460 260C460 260 461.14 300 440 300C440 300 440 260 440 240L460 220Z" fill="#ffffff" fill-rule="evenodd" opacity="1" stroke="#4c4b4b" stroke-linecap="round" stroke-linejoin="round" stroke-width="8"/>
</g>
</svg>
